# xmcd
# Track frame offsets:
# 150
# 13333
# 24230
# 41346
# 55671
# 69491
# 82810
# 93629
# 107520
# 117009
#
# Disc length: 1780 seconds
# Revision: 1
# Processed by: cddbd v1.5.2PL0 Copyright (c) Steve Scherf et al.
# Submitted via: VisiTrax 2.11.3.279 - For more info visit www.synapsa.com
#
DISCID=6e06f20a
DTITLE=Vestal Goodman - The Gift Of Love - My Christmas Favorites
DYEAR=2004
DGENRE=Julemusikk
TTITLE0=O Come All Ye Faithful
TTITLE1=Away In A Manger
TTITLE2=Oh Holy Night
TTITLE3=Silent Night
TTITLE4=Silver Bells
TTITLE5=I'll Be Home For Christmas
TTITLE6=Rudolph The Red Nosed Reindeer
TTITLE7=The Christmas Song
TTITLE8=Sant Claus Is Coming To Town
TTITLE9=White Christmas
EXTD=
EXTT0=
EXTT1=
EXTT2=
EXTT3=
EXTT4=
EXTT5=
EXTT6=
EXTT7=
EXTT8=
EXTT9=
PLAYORDER=
